<svg width="128" height="128" viewBox="0 0 128 128" fill="none" xmlns="http://www.w3.org/2000/svg">
  <!-- Background -->
  <rect width="128" height="128" rx="24" fill="#434BE4"/>

  <!-- Four-pointed star (✦) centered -->
  <path d="
    M64 20
    C64 20 60 44 44 44
    C44 44 64 48 64 64
    C64 64 68 44 84 44
    C84 44 64 40 64 20Z
  " fill="white"/>
  <path d="
    M64 108
    C64 108 60 84 44 84
    C44 84 64 80 64 64
    C64 64 68 84 84 84
    C84 84 64 88 64 108Z
  " fill="white"/>
  <path d="
    M20 64
    C20 64 44 60 44 44
    C44 44 48 64 64 64
    C64 64 44 68 44 84
    C44 84 40 64 20 64Z
  " fill="white"/>
  <path d="
    M108 64
    C108 64 84 60 84 44
    C84 44 80 64 64 64
    C64 64 84 68 84 84
    C84 84 88 64 108 64Z
  " fill="white"/>
</svg>
